<svg width="400" height="400" viewBox="0 0 400 400" fill="none" xmlns="http://www.w3.org/2000/svg">
<path d="M208.188 61.75C215.375 65 220 72.125 220 80V320C220 327.875 215.375 335 208.188 338.25C201 341.5 192.563 340.187 186.688 334.938L102.375 260H60C37.9375 260 20 242.063 20 220V180C20 157.938 37.9375 140 60 140H102.375L186.688 65.0625C192.563 59.8125 201 58.5625 208.188 61.75ZM285.625 144.375L320 178.75L354.375 144.375C360.25 138.5 369.75 138.5 375.563 144.375C381.375 150.25 381.438 159.75 375.563 165.562L341.188 199.938L375.563 234.312C381.438 240.187 381.438 249.687 375.563 255.5C369.688 261.312 360.188 261.375 354.375 255.5L320 221.125L285.625 255.5C279.75 261.375 270.25 261.375 264.438 255.5C258.625 249.625 258.563 240.125 264.438 234.312L298.813 199.938L264.438 165.562C258.563 159.688 258.563 150.188 264.438 144.375C270.313 138.563 279.812 138.5 285.625 144.375Z" fill="#9EA1A1"/>
</svg>
