<svg width="400" height="400" viewBox="0 0 400 400" fill="none" xmlns="http://www.w3.org/2000/svg">
<path d="M333.5 60.3125C374.062 93.25 400 143.625 400 200C400 256.375 374.062 306.687 333.5 339.687C327.062 344.937 317.625 343.937 312.375 337.5C307.125 331.062 308.125 321.625 314.562 316.375C348.437 288.875 370 247 370 200C370 153 348.437 111.125 314.562 83.5625C308.125 78.3125 307.187 68.875 312.375 62.4375C317.562 56 327.062 55.0625 333.5 60.25V60.3125ZM295.688 106.875C322.688 128.875 340 162.437 340 200C340 237.562 322.688 271.125 295.688 293.125C289.25 298.375 279.812 297.375 274.562 290.937C269.312 284.5 270.312 275.062 276.75 269.812C297.062 253.312 310 228.187 310 200C310 171.812 297.062 146.687 276.75 130.125C270.312 124.875 269.375 115.437 274.562 109C279.75 102.562 289.25 101.625 295.688 106.812V106.875ZM257.875 153.437C271.313 164.437 280 181.187 280 200C280 218.812 271.313 235.562 257.875 246.562C251.438 251.812 242 250.812 236.75 244.375C231.5 237.937 232.5 228.5 238.937 223.25C245.687 217.75 250 209.375 250 200C250 190.625 245.687 182.25 238.937 176.687C232.5 171.437 231.562 162 236.75 155.562C241.937 149.125 251.438 148.187 257.875 153.375V153.437ZM188.188 61.75C195.375 65 200 72.125 200 80V320C200 327.875 195.375 335 188.188 338.25C181 341.5 172.563 340.187 166.688 334.937L82.375 260H40C17.9375 260 0 242.062 0 220V180C0 157.937 17.9375 140 40 140H82.375L166.688 65.0625C172.563 59.8125 181 58.5625 188.188 61.75Z" fill="#9EA1A1"/>
</svg>
