<svg width="400" height="400" viewBox="0 0 400 400" fill="none" xmlns="http://www.w3.org/2000/svg">
<path d="M248.188 61.75C255.375 65 260 72.125 260 80V320C260 327.875 255.375 335 248.188 338.25C241 341.5 232.563 340.187 226.688 334.938L142.375 260H100C77.9375 260 60 242.063 60 220V180C60 157.938 77.9375 140 100 140H142.375L226.688 65.0625C232.563 59.8125 241 58.5625 248.188 61.75ZM317.875 153.438C331.313 164.438 340 181.188 340 200C340 218.813 331.313 235.563 317.875 246.563C311.438 251.813 302 250.813 296.75 244.375C291.5 237.938 292.5 228.5 298.937 223.25C305.687 217.75 310 209.375 310 200C310 190.625 305.687 182.25 298.937 176.688C292.5 171.438 291.562 162 296.75 155.562C301.937 149.125 311.438 148.187 317.875 153.375V153.438Z" fill="#9EA1A1"/>
</svg>
