<svg width="512" height="512" viewBox="0 0 512 512" fill="none" xmlns="http://www.w3.org/2000/svg">
<path d="M373.654 131.724H139.446L169.134 161.412H307.68L238.407 230.685L256.55 248.828L373.654 131.724Z" fill="black"/>
<path d="M133.398 131.724H2L253.801 380.257V345.168L167.339 259.145L149.342 241.043L70.1732 161.412H116.08L172.526 217.858L190.576 235.908L253.801 299.133V252.126L133.398 131.724Z" fill="black"/>
<path d="M172.526 217.858L149.342 241.043L167.339 259.145L190.576 235.908L172.526 217.858Z" fill="black"/>
<path fill-rule="evenodd" clip-rule="evenodd" d="M379.701 131.724H510L397.019 244.704H374.753V266.971L259.848 380.776V252.126L379.701 131.724ZM397.019 161.412H444.026L374.753 230.685L355.511 249.927L285.688 319.75V272.743L332.007 226.424L351.25 207.182L397.019 161.412Z" fill="black"/>
<path d="M332.007 226.424L355.511 249.927L374.753 230.685L351.25 207.182L332.007 226.424Z" fill="black"/>
</svg>
