<svg viewBox="0 0 1024 1024" fill="none" xmlns="http://www.w3.org/2000/svg">
<path d="M747.308 263.448H278.892L338.269 322.824H615.36L476.814 461.37L513.1 497.656L747.308 263.448Z" fill="black"/>
<path d="M266.797 263.448H4L507.602 760.513V690.337L334.678 518.289L298.684 482.085L140.346 322.824H232.16L345.053 435.717L381.152 471.816L507.602 598.266V504.253L266.797 263.448Z" fill="black"/>
<path d="M345.053 435.717L298.684 482.085L334.678 518.289L381.152 471.816L345.053 435.717Z" fill="black"/>
<path fill-rule="evenodd" clip-rule="evenodd" d="M759.402 263.448H1020L794.039 489.409H749.506V533.941L519.697 761.552V504.253L759.402 263.448ZM794.039 322.824H888.052L749.506 461.37L711.021 499.855L571.376 639.5V545.487L664.015 452.848L702.5 414.363L794.039 322.824Z" fill="black"/>
<path d="M664.015 452.848L711.021 499.855L749.506 461.37L702.5 414.363L664.015 452.848Z" fill="black"/>
</svg>
