<svg viewBox="0 0 1016 499" fill="none" xmlns="http://www.w3.org/2000/svg">
<path d="M743.308 0H274.892L334.269 59.3766H611.36L472.814 197.922L509.1 234.208L743.308 0Z" fill="black"/>
<path d="M262.797 0H0L503.602 497.066V426.889L330.678 254.841L294.684 218.638L136.346 59.3766H228.16L341.053 172.269L377.152 208.368L503.602 334.818V240.805L262.797 0Z" fill="black"/>
<path d="M341.053 172.269L294.684 218.638L330.678 254.841L377.152 208.368L341.053 172.269Z" fill="black"/>
<path fill-rule="evenodd" clip-rule="evenodd" d="M755.402 0H1016L790.039 225.961H745.506V270.494L515.697 498.104V240.805L755.402 0ZM790.039 59.3766H884.052L745.506 197.922L707.021 236.407L567.376 376.052V282.039L660.015 189.4L698.5 150.916L790.039 59.3766Z" fill="black"/>
<path d="M660.015 189.4L707.021 236.407L745.506 197.922L698.5 150.916L660.015 189.4Z" fill="black"/>
</svg>
